<mxfile host="Electron" agent="Mozilla/5.0 (Macintosh; Intel Mac OS X 10_15_7) AppleWebKit/537.36 (KHTML, like Gecko) draw.io/27.0.2 Chrome/134.0.6998.205 Electron/35.3.0 Safari/537.36" version="27.0.2">
  <diagram name="Page-1" id="yycGh_9Ph28ByX9o-kmP">
    <mxGraphModel dx="1426" dy="912" grid="1" gridSize="10" guides="1" tooltips="1" connect="1" arrows="1" fold="1" page="1" pageScale="1" pageWidth="750" pageHeight="750" math="0" shadow="0">
      <root>
        <mxCell id="0" />
        <mxCell id="1" parent="0" />
        <mxCell id="tnLM2oQpYzjwiPlXlhZm-1" value="GUEST" style="shape=umlActor;verticalLabelPosition=bottom;verticalAlign=top;html=1;outlineConnect=0;strokeColor=#EEEEEE;fontColor=#FFFFFF;fillColor=#56517E;fontStyle=1;fontSize=15;" vertex="1" parent="1">
          <mxGeometry x="74.5" y="50" width="30" height="60" as="geometry" />
        </mxCell>
        <mxCell id="tnLM2oQpYzjwiPlXlhZm-2" value="HOST" style="shape=umlActor;verticalLabelPosition=bottom;verticalAlign=top;html=1;outlineConnect=0;strokeColor=#EEEEEE;fontColor=#FFFFFF;fillColor=#56517E;fontSize=15;fontStyle=1" vertex="1" parent="1">
          <mxGeometry x="344.5" y="50" width="30" height="60" as="geometry" />
        </mxCell>
        <mxCell id="tnLM2oQpYzjwiPlXlhZm-5" value="View Property Details" style="ellipse;whiteSpace=wrap;html=1;strokeColor=#EEEEEE;fontColor=#FFFFFF;fillColor=#56517E;fontStyle=1;fontSize=16;" vertex="1" parent="1">
          <mxGeometry x="22" y="235" width="135" height="90" as="geometry" />
        </mxCell>
        <mxCell id="tnLM2oQpYzjwiPlXlhZm-6" value="Book Property" style="ellipse;whiteSpace=wrap;html=1;strokeColor=#EEEEEE;fontColor=#FFFFFF;fillColor=#56517E;fontStyle=1;fontSize=16;" vertex="1" parent="1">
          <mxGeometry x="22" y="330" width="135" height="90" as="geometry" />
        </mxCell>
        <mxCell id="tnLM2oQpYzjwiPlXlhZm-7" value="Search Properties" style="ellipse;whiteSpace=wrap;html=1;strokeColor=#EEEEEE;fontColor=#FFFFFF;fillColor=#56517E;fontStyle=1;fontSize=16;" vertex="1" parent="1">
          <mxGeometry x="22" y="140" width="135" height="90" as="geometry" />
        </mxCell>
        <mxCell id="tnLM2oQpYzjwiPlXlhZm-8" value="List Property" style="ellipse;whiteSpace=wrap;html=1;strokeColor=#EEEEEE;fontColor=#FFFFFF;fillColor=#56517E;fontStyle=1;fontSize=16;" vertex="1" parent="1">
          <mxGeometry x="292" y="140" width="135" height="90" as="geometry" />
        </mxCell>
        <mxCell id="tnLM2oQpYzjwiPlXlhZm-9" value="Write Review" style="ellipse;whiteSpace=wrap;html=1;strokeColor=#EEEEEE;fontColor=#FFFFFF;fillColor=#56517E;fontStyle=1;fontSize=16;" vertex="1" parent="1">
          <mxGeometry x="22" y="530" width="135" height="90" as="geometry" />
        </mxCell>
        <mxCell id="tnLM2oQpYzjwiPlXlhZm-10" value="Make Payment" style="ellipse;whiteSpace=wrap;html=1;strokeColor=#EEEEEE;fontColor=#FFFFFF;fillColor=#56517E;fontStyle=1;fontSize=16;" vertex="1" parent="1">
          <mxGeometry x="22" y="430" width="135" height="90" as="geometry" />
        </mxCell>
        <mxCell id="tnLM2oQpYzjwiPlXlhZm-11" value="Receive Notifications" style="ellipse;whiteSpace=wrap;html=1;strokeColor=#EEEEEE;fontColor=#FFFFFF;fillColor=#56517E;fontStyle=1;fontSize=16;" vertex="1" parent="1">
          <mxGeometry x="22" y="630" width="135" height="90" as="geometry" />
        </mxCell>
        <mxCell id="tnLM2oQpYzjwiPlXlhZm-15" value="Manage Listings" style="ellipse;whiteSpace=wrap;html=1;strokeColor=#EEEEEE;fontColor=#FFFFFF;fillColor=#56517E;fontStyle=1;fontSize=16;" vertex="1" parent="1">
          <mxGeometry x="292" y="235" width="135" height="90" as="geometry" />
        </mxCell>
        <mxCell id="tnLM2oQpYzjwiPlXlhZm-16" value="Register/Login" style="ellipse;whiteSpace=wrap;html=1;strokeColor=#EEEEEE;fontColor=#FFFFFF;fillColor=#56517E;fontStyle=1;fontSize=16;" vertex="1" parent="1">
          <mxGeometry x="292" y="330" width="135" height="90" as="geometry" />
        </mxCell>
        <mxCell id="tnLM2oQpYzjwiPlXlhZm-17" value="View Bookings" style="ellipse;whiteSpace=wrap;html=1;strokeColor=#EEEEEE;fontColor=#FFFFFF;fillColor=#56517E;fontStyle=1;fontSize=16;" vertex="1" parent="1">
          <mxGeometry x="292" y="430" width="135" height="90" as="geometry" />
        </mxCell>
        <mxCell id="tnLM2oQpYzjwiPlXlhZm-18" value="Respond to Reviews" style="ellipse;whiteSpace=wrap;html=1;strokeColor=#EEEEEE;fontColor=#FFFFFF;fillColor=#56517E;fontStyle=1;fontSize=16;" vertex="1" parent="1">
          <mxGeometry x="292" y="530" width="135" height="90" as="geometry" />
        </mxCell>
        <mxCell id="tnLM2oQpYzjwiPlXlhZm-19" value="Register/Login" style="ellipse;whiteSpace=wrap;html=1;strokeColor=#EEEEEE;fontColor=#FFFFFF;fillColor=#56517E;fontStyle=1;fontSize=16;" vertex="1" parent="1">
          <mxGeometry x="157" y="30" width="135" height="90" as="geometry" />
        </mxCell>
        <mxCell id="tnLM2oQpYzjwiPlXlhZm-31" value="ADMIN" style="shape=umlActor;verticalLabelPosition=bottom;verticalAlign=top;html=1;outlineConnect=0;strokeColor=#EEEEEE;fontColor=#FFFFFF;fillColor=#56517E;fontSize=15;fontStyle=1" vertex="1" parent="1">
          <mxGeometry x="644.5" y="50" width="30" height="60" as="geometry" />
        </mxCell>
        <mxCell id="tnLM2oQpYzjwiPlXlhZm-32" value="Manage Users" style="ellipse;whiteSpace=wrap;html=1;strokeColor=#EEEEEE;fontColor=#FFFFFF;fillColor=#56517E;fontStyle=1;fontSize=16;" vertex="1" parent="1">
          <mxGeometry x="592" y="140" width="135" height="90" as="geometry" />
        </mxCell>
        <mxCell id="tnLM2oQpYzjwiPlXlhZm-33" value="Handle Disputes" style="ellipse;whiteSpace=wrap;html=1;strokeColor=#EEEEEE;fontColor=#FFFFFF;fillColor=#56517E;fontStyle=1;fontSize=16;" vertex="1" parent="1">
          <mxGeometry x="592.5" y="440" width="135" height="90" as="geometry" />
        </mxCell>
        <mxCell id="tnLM2oQpYzjwiPlXlhZm-34" value="Manage Listings" style="ellipse;whiteSpace=wrap;html=1;strokeColor=#EEEEEE;fontColor=#FFFFFF;fillColor=#56517E;fontStyle=1;fontSize=16;" vertex="1" parent="1">
          <mxGeometry x="592" y="240" width="135" height="90" as="geometry" />
        </mxCell>
        <mxCell id="tnLM2oQpYzjwiPlXlhZm-35" value="Oversee Transactions" style="ellipse;whiteSpace=wrap;html=1;strokeColor=#EEEEEE;fontColor=#FFFFFF;fillColor=#56517E;fontStyle=1;fontSize=16;" vertex="1" parent="1">
          <mxGeometry x="592.5" y="340" width="135" height="90" as="geometry" />
        </mxCell>
      </root>
    </mxGraphModel>
  </diagram>
</mxfile>
